<svg width="236" height="25" viewBox="0 0 236 25" fill="none" xmlns="http://www.w3.org/2000/svg">
<g filter="url(#filter0_d_2_230)">
<path d="M20 9C20 11.1217 19.1571 13.1566 17.6569 14.6569C16.1566 16.1571 14.1217 17 12 17C9.87827 17 7.84344 16.1571 6.34315 14.6569C4.84285 13.1566 4 11.1217 4 9C4 6.87827 4.84285 4.84344 6.34315 3.34315C7.84344 1.84285 9.87827 1 12 1C14.1217 1 16.1566 1.84285 17.6569 3.34315C19.1571 4.84344 20 6.87827 20 9ZM12 5C11.8736 5.00007 11.7486 5.02662 11.6331 5.07793C11.5176 5.12924 11.4141 5.20418 11.3293 5.29791C11.2446 5.39165 11.1803 5.5021 11.1408 5.62217C11.1013 5.74223 11.0874 5.86923 11.1 5.995L11.45 9.502C11.4618 9.63977 11.5248 9.76811 11.6266 9.86164C11.7285 9.95516 11.8617 10.0071 12 10.0071C12.1383 10.0071 12.2715 9.95516 12.3734 9.86164C12.4752 9.76811 12.5382 9.63977 12.55 9.502L12.9 5.995C12.9126 5.86923 12.8987 5.74223 12.8592 5.62217C12.8197 5.5021 12.7554 5.39165 12.6707 5.29791C12.5859 5.20418 12.4824 5.12924 12.3669 5.07793C12.2514 5.02662 12.1264 5.00007 12 5ZM12.002 11C11.7368 11 11.4824 11.1054 11.2949 11.2929C11.1074 11.4804 11.002 11.7348 11.002 12C11.002 12.2652 11.1074 12.5196 11.2949 12.7071C11.4824 12.8946 11.7368 13 12.002 13C12.2672 13 12.5216 12.8946 12.7091 12.7071C12.8966 12.5196 13.002 12.2652 13.002 12C13.002 11.7348 12.8966 11.4804 12.7091 11.2929C12.5216 11.1054 12.2672 11 12.002 11Z" fill="#495057"/>
<path opacity="0.8" d="M33.8295 6.45455C33.7784 6.02273 33.571 5.6875 33.2074 5.44886C32.8438 5.21023 32.3977 5.09091 31.8693 5.09091C31.483 5.09091 31.1449 5.15341 30.8551 5.27841C30.5682 5.40341 30.3438 5.57528 30.1818 5.79403C30.0227 6.01278 29.9432 6.26136 29.9432 6.53977C29.9432 6.77273 29.9986 6.97301 30.1094 7.14062C30.223 7.3054 30.3679 7.44318 30.544 7.55398C30.7202 7.66193 30.9048 7.75142 31.098 7.82244C31.2912 7.89062 31.4688 7.94602 31.6307 7.98864L32.517 8.22727C32.7443 8.28693 32.9972 8.36932 33.2756 8.47443C33.5568 8.57955 33.8253 8.72301 34.081 8.90483C34.3395 9.08381 34.5526 9.31392 34.7202 9.59517C34.8878 9.87642 34.9716 10.2216 34.9716 10.6307C34.9716 11.1023 34.848 11.5284 34.6009 11.9091C34.3565 12.2898 33.9986 12.5923 33.527 12.8168C33.0582 13.0412 32.4886 13.1534 31.8182 13.1534C31.1932 13.1534 30.652 13.0526 30.1946 12.8509C29.7401 12.6491 29.3821 12.3679 29.1207 12.0071C28.8622 11.6463 28.7159 11.2273 28.6818 10.75H29.7727C29.8011 11.0795 29.9119 11.3523 30.1051 11.5682C30.3011 11.7812 30.5483 11.9403 30.8466 12.0455C31.1477 12.1477 31.4716 12.1989 31.8182 12.1989C32.2216 12.1989 32.5838 12.1335 32.9048 12.0028C33.2259 11.8693 33.4801 11.6847 33.6676 11.4489C33.8551 11.2102 33.9489 10.9318 33.9489 10.6136C33.9489 10.3239 33.8679 10.0881 33.706 9.90625C33.544 9.72443 33.331 9.5767 33.0668 9.46307C32.8026 9.34943 32.517 9.25 32.2102 9.16477L31.1364 8.85795C30.4545 8.66193 29.9148 8.3821 29.517 8.01847C29.1193 7.65483 28.9205 7.17898 28.9205 6.59091C28.9205 6.10227 29.0526 5.67614 29.3168 5.3125C29.5838 4.94602 29.9418 4.66193 30.3906 4.46023C30.8423 4.25568 31.3466 4.15341 31.9034 4.15341C32.4659 4.15341 32.9659 4.25426 33.4034 4.45597C33.8409 4.65483 34.1875 4.92756 34.4432 5.27415C34.7017 5.62074 34.8381 6.0142 34.8523 6.45455H33.8295ZM39.2319 13.1364C38.641 13.1364 38.1225 12.9957 37.6765 12.7145C37.2333 12.4332 36.8867 12.0398 36.6367 11.5341C36.3896 11.0284 36.266 10.4375 36.266 9.76136C36.266 9.07955 36.3896 8.48437 36.6367 7.97585C36.8867 7.46733 37.2333 7.07244 37.6765 6.79119C38.1225 6.50994 38.641 6.36932 39.2319 6.36932C39.8228 6.36932 40.3398 6.50994 40.783 6.79119C41.229 7.07244 41.5756 7.46733 41.8228 7.97585C42.0728 8.48437 42.1978 9.07955 42.1978 9.76136C42.1978 10.4375 42.0728 11.0284 41.8228 11.5341C41.5756 12.0398 41.229 12.4332 40.783 12.7145C40.3398 12.9957 39.8228 13.1364 39.2319 13.1364ZM39.2319 12.233C39.6808 12.233 40.0501 12.1179 40.3398 11.8878C40.6296 11.6577 40.8441 11.3551 40.9833 10.9801C41.1225 10.6051 41.1921 10.1989 41.1921 9.76136C41.1921 9.32386 41.1225 8.91619 40.9833 8.53835C40.8441 8.16051 40.6296 7.85511 40.3398 7.62216C40.0501 7.3892 39.6808 7.27273 39.2319 7.27273C38.783 7.27273 38.4137 7.3892 38.1239 7.62216C37.8342 7.85511 37.6197 8.16051 37.4805 8.53835C37.3413 8.91619 37.2717 9.32386 37.2717 9.76136C37.2717 10.1989 37.3413 10.6051 37.4805 10.9801C37.6197 11.3551 37.8342 11.6577 38.1239 11.8878C38.4137 12.1179 38.783 12.233 39.2319 12.233ZM44.7386 4.27273V13H43.733V4.27273H44.7386ZM49.2397 13.1364C48.6488 13.1364 48.1303 12.9957 47.6843 12.7145C47.2411 12.4332 46.8945 12.0398 46.6445 11.5341C46.3974 11.0284 46.2738 10.4375 46.2738 9.76136C46.2738 9.07955 46.3974 8.48437 46.6445 7.97585C46.8945 7.46733 47.2411 7.07244 47.6843 6.79119C48.1303 6.50994 48.6488 6.36932 49.2397 6.36932C49.8306 6.36932 50.3477 6.50994 50.7908 6.79119C51.2369 7.07244 51.5835 7.46733 51.8306 7.97585C52.0806 8.48437 52.2056 9.07955 52.2056 9.76136C52.2056 10.4375 52.0806 11.0284 51.8306 11.5341C51.5835 12.0398 51.2369 12.4332 50.7908 12.7145C50.3477 12.9957 49.8306 13.1364 49.2397 13.1364ZM49.2397 12.233C49.6886 12.233 50.0579 12.1179 50.3477 11.8878C50.6374 11.6577 50.8519 11.3551 50.9911 10.9801C51.1303 10.6051 51.1999 10.1989 51.1999 9.76136C51.1999 9.32386 51.1303 8.91619 50.9911 8.53835C50.8519 8.16051 50.6374 7.85511 50.3477 7.62216C50.0579 7.3892 49.6886 7.27273 49.2397 7.27273C48.7908 7.27273 48.4215 7.3892 48.1317 7.62216C47.842 7.85511 47.6275 8.16051 47.4883 8.53835C47.3491 8.91619 47.2795 9.32386 47.2795 9.76136C47.2795 10.1989 47.3491 10.6051 47.4883 10.9801C47.6275 11.3551 47.842 11.6577 48.1317 11.8878C48.4215 12.1179 48.7908 12.233 49.2397 12.233ZM58.1214 4.27273V13H57.1158V4.27273H58.1214ZM62.7077 13.1364C62.0771 13.1364 61.533 12.9972 61.0756 12.7188C60.6211 12.4375 60.2702 12.0455 60.0231 11.5426C59.7788 11.0369 59.6566 10.4489 59.6566 9.77841C59.6566 9.10795 59.7788 8.51705 60.0231 8.00568C60.2702 7.49148 60.614 7.09091 61.0543 6.80398C61.4975 6.5142 62.0146 6.36932 62.6055 6.36932C62.9464 6.36932 63.283 6.42614 63.6154 6.53977C63.9478 6.65341 64.2504 6.83807 64.5231 7.09375C64.7958 7.34659 65.0131 7.68182 65.1751 8.09943C65.337 8.51705 65.418 9.03125 65.418 9.64205V10.0682H60.3725V9.19886H64.3952C64.3952 8.82955 64.3214 8.5 64.1737 8.21023C64.0288 7.92045 63.8214 7.69176 63.5515 7.52415C63.2844 7.35653 62.9691 7.27273 62.6055 7.27273C62.2049 7.27273 61.8583 7.37216 61.5657 7.57102C61.2759 7.76705 61.0529 8.02273 60.8967 8.33807C60.7404 8.65341 60.6623 8.99148 60.6623 9.35227V9.93182C60.6623 10.4261 60.7475 10.8452 60.918 11.1889C61.0913 11.5298 61.3313 11.7898 61.6381 11.9688C61.945 12.1449 62.3015 12.233 62.7077 12.233C62.9719 12.233 63.2106 12.196 63.4237 12.1222C63.6396 12.0455 63.8256 11.9318 63.9819 11.7812C64.1381 11.6278 64.2589 11.4375 64.3441 11.2102L65.3157 11.483C65.2134 11.8125 65.0415 12.1023 64.8001 12.3523C64.5586 12.5994 64.2603 12.7926 63.9052 12.9318C63.5501 13.0682 63.1509 13.1364 62.7077 13.1364ZM69.7944 6.45455V7.30682H66.4023V6.45455H69.7944ZM67.391 4.88636H68.3967V11.125C68.3967 11.4091 68.4379 11.6222 68.5202 11.7642C68.6055 11.9034 68.7134 11.9972 68.8441 12.0455C68.9776 12.0909 69.1183 12.1136 69.266 12.1136C69.3768 12.1136 69.4677 12.108 69.5387 12.0966C69.6097 12.0824 69.6665 12.071 69.7092 12.0625L69.9137 12.9659C69.8455 12.9915 69.7504 13.017 69.6282 13.0426C69.506 13.071 69.3512 13.0852 69.1637 13.0852C68.8796 13.0852 68.6012 13.0241 68.3285 12.902C68.0586 12.7798 67.8342 12.5938 67.6552 12.3438C67.479 12.0938 67.391 11.7784 67.391 11.3977V4.88636ZM71.3072 13V6.45455H72.2788V7.44318H72.3469C72.4663 7.11932 72.6822 6.85653 72.9947 6.65483C73.3072 6.45312 73.6594 6.35227 74.0515 6.35227C74.1254 6.35227 74.2177 6.35369 74.3285 6.35653C74.4393 6.35937 74.5231 6.36364 74.5799 6.36932V7.39205C74.5458 7.38352 74.4677 7.37074 74.3455 7.35369C74.2262 7.33381 74.0998 7.32386 73.9663 7.32386C73.6481 7.32386 73.364 7.39062 73.114 7.52415C72.8668 7.65483 72.6708 7.83665 72.5259 8.0696C72.3839 8.29972 72.3129 8.5625 72.3129 8.85795V13H71.3072ZM77.6982 13.1534C77.2834 13.1534 76.907 13.0753 76.5689 12.919C76.2308 12.7599 75.9624 12.5312 75.7635 12.233C75.5646 11.9318 75.4652 11.5682 75.4652 11.142C75.4652 10.767 75.5391 10.4631 75.6868 10.2301C75.8345 9.99432 76.032 9.80966 76.2791 9.67614C76.5263 9.54261 76.799 9.44318 77.0973 9.37784C77.3984 9.30966 77.701 9.25568 78.005 9.21591C78.4027 9.16477 78.7251 9.12642 78.9723 9.10085C79.2223 9.07244 79.4041 9.02557 79.5178 8.96023C79.6342 8.89489 79.6925 8.78125 79.6925 8.61932V8.58523C79.6925 8.16477 79.5774 7.83807 79.3473 7.60511C79.12 7.37216 78.7749 7.25568 78.3118 7.25568C77.8317 7.25568 77.4553 7.3608 77.1825 7.57102C76.9098 7.78125 76.718 8.00568 76.6072 8.24432L75.6527 7.90341C75.8232 7.50568 76.0504 7.19602 76.3345 6.97443C76.6214 6.75 76.9339 6.59375 77.272 6.50568C77.6129 6.41477 77.9482 6.36932 78.2777 6.36932C78.4879 6.36932 78.7294 6.39489 79.0021 6.44602C79.2777 6.49432 79.5433 6.59517 79.799 6.74858C80.0575 6.90199 80.272 7.13352 80.4425 7.44318C80.6129 7.75284 80.6982 8.16761 80.6982 8.6875V13H79.6925V12.1136H79.6413C79.5732 12.2557 79.4595 12.4077 79.3004 12.5696C79.1413 12.7315 78.9297 12.8693 78.6655 12.983C78.4013 13.0966 78.0788 13.1534 77.6982 13.1534ZM77.8516 12.25C78.2493 12.25 78.5845 12.1719 78.8572 12.0156C79.1328 11.8594 79.3402 11.6577 79.4794 11.4105C79.6214 11.1634 79.6925 10.9034 79.6925 10.6307V9.71023C79.6499 9.76136 79.5561 9.80824 79.4112 9.85085C79.2692 9.89062 79.1044 9.92614 78.9169 9.95739C78.7322 9.9858 78.5518 10.0114 78.3757 10.0341C78.2024 10.054 78.0618 10.071 77.9538 10.0852C77.6925 10.1193 77.4482 10.1747 77.2209 10.2514C76.9964 10.3253 76.8146 10.4375 76.6754 10.5881C76.5391 10.7358 76.4709 10.9375 76.4709 11.1932C76.4709 11.5426 76.6001 11.8068 76.8587 11.9858C77.12 12.1619 77.451 12.25 77.8516 12.25ZM87.1701 7.92045L86.2667 8.17614C86.2099 8.02557 86.1261 7.87926 86.0153 7.73722C85.9073 7.59233 85.7596 7.47301 85.5721 7.37926C85.3846 7.28551 85.1445 7.23864 84.8519 7.23864C84.4513 7.23864 84.1175 7.33097 83.8505 7.51562C83.5863 7.69744 83.4542 7.92898 83.4542 8.21023C83.4542 8.46023 83.5451 8.65767 83.7269 8.80256C83.9087 8.94744 84.1928 9.06818 84.5792 9.16477L85.5508 9.40341C86.136 9.54545 86.5721 9.76278 86.859 10.0554C87.146 10.3452 87.2894 10.7187 87.2894 11.1761C87.2894 11.5511 87.1815 11.8864 86.9656 12.1818C86.7525 12.4773 86.4542 12.7102 86.0707 12.8807C85.6871 13.0511 85.2411 13.1364 84.7326 13.1364C84.065 13.1364 83.5124 12.9915 83.0749 12.7017C82.6374 12.4119 82.3604 11.9886 82.244 11.4318L83.1985 11.1932C83.2894 11.5455 83.4613 11.8097 83.7141 11.9858C83.9698 12.1619 84.3036 12.25 84.7156 12.25C85.1843 12.25 85.5565 12.1506 85.832 11.9517C86.1104 11.75 86.2496 11.5085 86.2496 11.2273C86.2496 11 86.1701 10.8097 86.011 10.6562C85.8519 10.5 85.6076 10.3835 85.2781 10.3068L84.1871 10.0511C83.5877 9.90909 83.1474 9.68892 82.8661 9.39062C82.5877 9.08949 82.4485 8.71307 82.4485 8.26136C82.4485 7.89205 82.5522 7.56534 82.7596 7.28125C82.9698 6.99716 83.2553 6.77415 83.6161 6.61222C83.9798 6.45028 84.3917 6.36932 84.8519 6.36932C85.4996 6.36932 86.0082 6.51136 86.3775 6.79545C86.7496 7.07955 87.0138 7.45455 87.1701 7.92045ZM92.1783 13V6.45455H93.1499V7.47727H93.2351C93.3714 7.12784 93.5916 6.85653 93.8956 6.66335C94.1996 6.46733 94.5646 6.36932 94.9908 6.36932C95.4226 6.36932 95.782 6.46733 96.0689 6.66335C96.3587 6.85653 96.5845 7.12784 96.7464 7.47727H96.8146C96.9822 7.1392 97.2337 6.87074 97.5689 6.67188C97.9041 6.47017 98.3061 6.36932 98.7749 6.36932C99.3601 6.36932 99.8388 6.55256 100.211 6.91903C100.583 7.28267 100.769 7.84943 100.769 8.61932V13H99.7635V8.61932C99.7635 8.13636 99.6314 7.79119 99.3672 7.58381C99.103 7.37642 98.7919 7.27273 98.4339 7.27273C97.9737 7.27273 97.6172 7.41193 97.3643 7.69034C97.1115 7.96591 96.9851 8.31534 96.9851 8.73864V13H95.9624V8.51705C95.9624 8.14489 95.8416 7.84517 95.6001 7.6179C95.3587 7.38778 95.0476 7.27273 94.6669 7.27273C94.4055 7.27273 94.1612 7.34233 93.9339 7.48153C93.7095 7.62074 93.5277 7.81392 93.3885 8.06108C93.2521 8.3054 93.1839 8.58807 93.1839 8.90909V13H92.1783ZM102.608 13V6.45455H103.614V13H102.608ZM103.119 5.36364C102.923 5.36364 102.754 5.29688 102.612 5.16335C102.473 5.02983 102.403 4.86932 102.403 4.68182C102.403 4.49432 102.473 4.33381 102.612 4.20028C102.754 4.06676 102.923 4 103.119 4C103.315 4 103.483 4.06676 103.622 4.20028C103.764 4.33381 103.835 4.49432 103.835 4.68182C103.835 4.86932 103.764 5.02983 103.622 5.16335C103.483 5.29688 103.315 5.36364 103.119 5.36364ZM106.461 9.0625V13H105.456V6.45455H106.427V7.47727H106.512C106.666 7.14489 106.899 6.87784 107.211 6.67614C107.524 6.47159 107.927 6.36932 108.422 6.36932C108.865 6.36932 109.252 6.46023 109.585 6.64205C109.917 6.82102 110.176 7.09375 110.36 7.46023C110.545 7.82386 110.637 8.28409 110.637 8.84091V13H109.632V8.90909C109.632 8.39489 109.498 7.99432 109.231 7.70739C108.964 7.41761 108.598 7.27273 108.132 7.27273C107.811 7.27273 107.524 7.34233 107.271 7.48153C107.021 7.62074 106.824 7.82386 106.679 8.09091C106.534 8.35795 106.461 8.68182 106.461 9.0625ZM116.6 10.3239V6.45455H117.606V13H116.6V11.892H116.532C116.379 12.2244 116.14 12.5071 115.816 12.7401C115.492 12.9702 115.083 13.0852 114.589 13.0852C114.18 13.0852 113.816 12.9957 113.498 12.8168C113.18 12.6349 112.93 12.3622 112.748 11.9986C112.566 11.6321 112.475 11.1705 112.475 10.6136V6.45455H113.481V10.5455C113.481 11.0227 113.614 11.4034 113.881 11.6875C114.151 11.9716 114.495 12.1136 114.913 12.1136C115.163 12.1136 115.417 12.0497 115.675 11.9219C115.937 11.794 116.156 11.598 116.332 11.3338C116.511 11.0696 116.6 10.733 116.6 10.3239ZM114.589 5.56818L115.629 3.59091H116.805L115.475 5.56818H114.589ZM124.084 7.92045L123.181 8.17614C123.124 8.02557 123.04 7.87926 122.929 7.73722C122.821 7.59233 122.674 7.47301 122.486 7.37926C122.299 7.28551 122.059 7.23864 121.766 7.23864C121.365 7.23864 121.032 7.33097 120.765 7.51562C120.5 7.69744 120.368 7.92898 120.368 8.21023C120.368 8.46023 120.459 8.65767 120.641 8.80256C120.823 8.94744 121.107 9.06818 121.493 9.16477L122.465 9.40341C123.05 9.54545 123.486 9.76278 123.773 10.0554C124.06 10.3452 124.203 10.7187 124.203 11.1761C124.203 11.5511 124.096 11.8864 123.88 12.1818C123.667 12.4773 123.368 12.7102 122.985 12.8807C122.601 13.0511 122.155 13.1364 121.647 13.1364C120.979 13.1364 120.426 12.9915 119.989 12.7017C119.551 12.4119 119.275 11.9886 119.158 11.4318L120.113 11.1932C120.203 11.5455 120.375 11.8097 120.628 11.9858C120.884 12.1619 121.218 12.25 121.63 12.25C122.098 12.25 122.471 12.1506 122.746 11.9517C123.025 11.75 123.164 11.5085 123.164 11.2273C123.164 11 123.084 10.8097 122.925 10.6562C122.766 10.5 122.522 10.3835 122.192 10.3068L121.101 10.0511C120.502 9.90909 120.061 9.68892 119.78 9.39062C119.502 9.08949 119.363 8.71307 119.363 8.26136C119.363 7.89205 119.466 7.56534 119.674 7.28125C119.884 6.99716 120.169 6.77415 120.53 6.61222C120.894 6.45028 121.306 6.36932 121.766 6.36932C122.414 6.36932 122.922 6.51136 123.292 6.79545C123.664 7.07955 123.928 7.45455 124.084 7.92045ZM128.376 13.1364C127.763 13.1364 127.234 12.9915 126.791 12.7017C126.348 12.4119 126.007 12.0128 125.768 11.5043C125.53 10.9957 125.411 10.4148 125.411 9.76136C125.411 9.09659 125.533 8.50994 125.777 8.00142C126.024 7.49006 126.368 7.09091 126.808 6.80398C127.251 6.5142 127.768 6.36932 128.359 6.36932C128.82 6.36932 129.234 6.45455 129.604 6.625C129.973 6.79545 130.276 7.03409 130.511 7.34091C130.747 7.64773 130.893 8.00568 130.95 8.41477H129.945C129.868 8.11648 129.697 7.85227 129.433 7.62216C129.172 7.3892 128.82 7.27273 128.376 7.27273C127.984 7.27273 127.641 7.375 127.345 7.57955C127.053 7.78125 126.824 8.06676 126.659 8.43608C126.497 8.80256 126.416 9.23295 126.416 9.72727C126.416 10.233 126.496 10.6733 126.655 11.0483C126.817 11.4233 127.044 11.7145 127.337 11.9219C127.632 12.1293 127.979 12.233 128.376 12.233C128.638 12.233 128.875 12.1875 129.088 12.0966C129.301 12.0057 129.482 11.875 129.629 11.7045C129.777 11.5341 129.882 11.3295 129.945 11.0909H130.95C130.893 11.4773 130.753 11.8253 130.528 12.1349C130.307 12.4418 130.013 12.6861 129.646 12.8679C129.283 13.0469 128.859 13.1364 128.376 13.1364ZM136.545 10.3239V6.45455H137.551V13H136.545V11.892H136.477C136.324 12.2244 136.085 12.5071 135.761 12.7401C135.438 12.9702 135.028 13.0852 134.534 13.0852C134.125 13.0852 133.761 12.9957 133.443 12.8168C133.125 12.6349 132.875 12.3622 132.693 11.9986C132.511 11.6321 132.42 11.1705 132.42 10.6136V6.45455H133.426V10.5455C133.426 11.0227 133.56 11.4034 133.827 11.6875C134.097 11.9716 134.44 12.1136 134.858 12.1136C135.108 12.1136 135.362 12.0497 135.621 11.9219C135.882 11.794 136.101 11.598 136.277 11.3338C136.456 11.0696 136.545 10.733 136.545 10.3239ZM140.399 4.27273V13H139.393V4.27273H140.399ZM144.167 13.1534C143.752 13.1534 143.376 13.0753 143.038 12.919C142.7 12.7599 142.431 12.5312 142.232 12.233C142.033 11.9318 141.934 11.5682 141.934 11.142C141.934 10.767 142.008 10.4631 142.156 10.2301C142.303 9.99432 142.501 9.80966 142.748 9.67614C142.995 9.54261 143.268 9.44318 143.566 9.37784C143.867 9.30966 144.17 9.25568 144.474 9.21591C144.871 9.16477 145.194 9.12642 145.441 9.10085C145.691 9.07244 145.873 9.02557 145.987 8.96023C146.103 8.89489 146.161 8.78125 146.161 8.61932V8.58523C146.161 8.16477 146.046 7.83807 145.816 7.60511C145.589 7.37216 145.244 7.25568 144.781 7.25568C144.3 7.25568 143.924 7.3608 143.651 7.57102C143.379 7.78125 143.187 8.00568 143.076 8.24432L142.121 7.90341C142.292 7.50568 142.519 7.19602 142.803 6.97443C143.09 6.75 143.403 6.59375 143.741 6.50568C144.082 6.41477 144.417 6.36932 144.746 6.36932C144.957 6.36932 145.198 6.39489 145.471 6.44602C145.746 6.49432 146.012 6.59517 146.268 6.74858C146.526 6.90199 146.741 7.13352 146.911 7.44318C147.082 7.75284 147.167 8.16761 147.167 8.6875V13H146.161V12.1136H146.11C146.042 12.2557 145.928 12.4077 145.769 12.5696C145.61 12.7315 145.398 12.8693 145.134 12.983C144.87 13.0966 144.548 13.1534 144.167 13.1534ZM144.32 12.25C144.718 12.25 145.053 12.1719 145.326 12.0156C145.602 11.8594 145.809 11.6577 145.948 11.4105C146.09 11.1634 146.161 10.9034 146.161 10.6307V9.71023C146.119 9.76136 146.025 9.80824 145.88 9.85085C145.738 9.89062 145.573 9.92614 145.386 9.95739C145.201 9.9858 145.021 10.0114 144.844 10.0341C144.671 10.054 144.531 10.071 144.423 10.0852C144.161 10.1193 143.917 10.1747 143.69 10.2514C143.465 10.3253 143.283 10.4375 143.144 10.5881C143.008 10.7358 142.94 10.9375 142.94 11.1932C142.94 11.5426 143.069 11.8068 143.327 11.9858C143.589 12.1619 143.92 12.25 144.32 12.25ZM153.639 7.92045L152.735 8.17614C152.679 8.02557 152.595 7.87926 152.484 7.73722C152.376 7.59233 152.228 7.47301 152.041 7.37926C151.853 7.28551 151.613 7.23864 151.321 7.23864C150.92 7.23864 150.586 7.33097 150.319 7.51562C150.055 7.69744 149.923 7.92898 149.923 8.21023C149.923 8.46023 150.014 8.65767 150.196 8.80256C150.377 8.94744 150.662 9.06818 151.048 9.16477L152.02 9.40341C152.605 9.54545 153.041 9.76278 153.328 10.0554C153.615 10.3452 153.758 10.7187 153.758 11.1761C153.758 11.5511 153.65 11.8864 153.434 12.1818C153.221 12.4773 152.923 12.7102 152.539 12.8807C152.156 13.0511 151.71 13.1364 151.201 13.1364C150.534 13.1364 149.981 12.9915 149.544 12.7017C149.106 12.4119 148.829 11.9886 148.713 11.4318L149.667 11.1932C149.758 11.5455 149.93 11.8097 150.183 11.9858C150.439 12.1619 150.772 12.25 151.184 12.25C151.653 12.25 152.025 12.1506 152.301 11.9517C152.579 11.75 152.718 11.5085 152.718 11.2273C152.718 11 152.639 10.8097 152.48 10.6562C152.321 10.5 152.076 10.3835 151.747 10.3068L150.656 10.0511C150.056 9.90909 149.616 9.68892 149.335 9.39062C149.056 9.08949 148.917 8.71307 148.917 8.26136C148.917 7.89205 149.021 7.56534 149.228 7.28125C149.439 6.99716 149.724 6.77415 150.085 6.61222C150.449 6.45028 150.86 6.36932 151.321 6.36932C151.968 6.36932 152.477 6.51136 152.846 6.79545C153.218 7.07955 153.483 7.45455 153.639 7.92045ZM159.295 15.4545C159.124 15.4545 158.972 15.4403 158.839 15.4119C158.705 15.3864 158.613 15.3608 158.562 15.3352L158.817 14.4489C159.062 14.5114 159.278 14.5341 159.465 14.517C159.653 14.5 159.819 14.4162 159.964 14.2656C160.112 14.1179 160.246 13.8778 160.369 13.5455L160.556 13.0341L158.136 6.45455H159.227L161.033 11.6705H161.102L162.908 6.45455H163.999L161.221 13.9545C161.096 14.2926 160.941 14.5724 160.756 14.794C160.572 15.0185 160.357 15.1847 160.113 15.2926C159.871 15.4006 159.599 15.4545 159.295 15.4545ZM173.338 7.92045L172.435 8.17614C172.378 8.02557 172.294 7.87926 172.183 7.73722C172.075 7.59233 171.928 7.47301 171.74 7.37926C171.553 7.28551 171.312 7.23864 171.02 7.23864C170.619 7.23864 170.286 7.33097 170.018 7.51562C169.754 7.69744 169.622 7.92898 169.622 8.21023C169.622 8.46023 169.713 8.65767 169.895 8.80256C170.077 8.94744 170.361 9.06818 170.747 9.16477L171.719 9.40341C172.304 9.54545 172.74 9.76278 173.027 10.0554C173.314 10.3452 173.457 10.7187 173.457 11.1761C173.457 11.5511 173.349 11.8864 173.134 12.1818C172.92 12.4773 172.622 12.7102 172.239 12.8807C171.855 13.0511 171.409 13.1364 170.901 13.1364C170.233 13.1364 169.68 12.9915 169.243 12.7017C168.805 12.4119 168.528 11.9886 168.412 11.4318L169.366 11.1932C169.457 11.5455 169.629 11.8097 169.882 11.9858C170.138 12.1619 170.472 12.25 170.884 12.25C171.352 12.25 171.724 12.1506 172 11.9517C172.278 11.75 172.418 11.5085 172.418 11.2273C172.418 11 172.338 10.8097 172.179 10.6562C172.02 10.5 171.776 10.3835 171.446 10.3068L170.355 10.0511C169.756 9.90909 169.315 9.68892 169.034 9.39062C168.756 9.08949 168.616 8.71307 168.616 8.26136C168.616 7.89205 168.72 7.56534 168.928 7.28125C169.138 6.99716 169.423 6.77415 169.784 6.61222C170.148 6.45028 170.56 6.36932 171.02 6.36932C171.668 6.36932 172.176 6.51136 172.545 6.79545C172.918 7.07955 173.182 7.45455 173.338 7.92045ZM174.971 13V6.45455H175.977V13H174.971ZM175.483 5.36364C175.287 5.36364 175.118 5.29688 174.975 5.16335C174.836 5.02983 174.767 4.86932 174.767 4.68182C174.767 4.49432 174.836 4.33381 174.975 4.20028C175.118 4.06676 175.287 4 175.483 4C175.679 4 175.846 4.06676 175.985 4.20028C176.127 4.33381 176.199 4.49432 176.199 4.68182C176.199 4.86932 176.127 5.02983 175.985 5.16335C175.846 5.29688 175.679 5.36364 175.483 5.36364ZM178.825 9.0625V13H177.819V6.45455H178.79V7.47727H178.876C179.029 7.14489 179.262 6.87784 179.575 6.67614C179.887 6.47159 180.29 6.36932 180.785 6.36932C181.228 6.36932 181.616 6.46023 181.948 6.64205C182.281 6.82102 182.539 7.09375 182.724 7.46023C182.908 7.82386 183.001 8.28409 183.001 8.84091V13H181.995V8.90909C181.995 8.39489 181.862 7.99432 181.594 7.70739C181.327 7.41761 180.961 7.27273 180.495 7.27273C180.174 7.27273 179.887 7.34233 179.634 7.48153C179.384 7.62074 179.187 7.82386 179.042 8.09091C178.897 8.35795 178.825 8.68182 178.825 9.0625ZM190.14 13.1534C189.725 13.1534 189.348 13.0753 189.01 12.919C188.672 12.7599 188.404 12.5312 188.205 12.233C188.006 11.9318 187.907 11.5682 187.907 11.142C187.907 10.767 187.98 10.4631 188.128 10.2301C188.276 9.99432 188.473 9.80966 188.721 9.67614C188.968 9.54261 189.24 9.44318 189.539 9.37784C189.84 9.30966 190.142 9.25568 190.446 9.21591C190.844 9.16477 191.167 9.12642 191.414 9.10085C191.664 9.07244 191.846 9.02557 191.959 8.96023C192.076 8.89489 192.134 8.78125 192.134 8.61932V8.58523C192.134 8.16477 192.019 7.83807 191.789 7.60511C191.561 7.37216 191.216 7.25568 190.753 7.25568C190.273 7.25568 189.897 7.3608 189.624 7.57102C189.351 7.78125 189.159 8.00568 189.049 8.24432L188.094 7.90341C188.265 7.50568 188.492 7.19602 188.776 6.97443C189.063 6.75 189.375 6.59375 189.713 6.50568C190.054 6.41477 190.39 6.36932 190.719 6.36932C190.929 6.36932 191.171 6.39489 191.444 6.44602C191.719 6.49432 191.985 6.59517 192.24 6.74858C192.499 6.90199 192.713 7.13352 192.884 7.44318C193.054 7.75284 193.14 8.16761 193.14 8.6875V13H192.134V12.1136H192.083C192.015 12.2557 191.901 12.4077 191.742 12.5696C191.583 12.7315 191.371 12.8693 191.107 12.983C190.843 13.0966 190.52 13.1534 190.14 13.1534ZM190.293 12.25C190.691 12.25 191.026 12.1719 191.299 12.0156C191.574 11.8594 191.782 11.6577 191.921 11.4105C192.063 11.1634 192.134 10.9034 192.134 10.6307V9.71023C192.091 9.76136 191.998 9.80824 191.853 9.85085C191.711 9.89062 191.546 9.92614 191.358 9.95739C191.174 9.9858 190.993 10.0114 190.817 10.0341C190.644 10.054 190.503 10.071 190.395 10.0852C190.134 10.1193 189.89 10.1747 189.662 10.2514C189.438 10.3253 189.256 10.4375 189.117 10.5881C188.98 10.7358 188.912 10.9375 188.912 11.1932C188.912 11.5426 189.042 11.8068 189.3 11.9858C189.561 12.1619 189.892 12.25 190.293 12.25ZM197.634 13.1364C197.021 13.1364 196.492 12.9915 196.049 12.7017C195.606 12.4119 195.265 12.0128 195.026 11.5043C194.788 10.9957 194.668 10.4148 194.668 9.76136C194.668 9.09659 194.79 8.50994 195.035 8.00142C195.282 7.49006 195.626 7.09091 196.066 6.80398C196.509 6.5142 197.026 6.36932 197.617 6.36932C198.077 6.36932 198.492 6.45455 198.862 6.625C199.231 6.79545 199.533 7.03409 199.769 7.34091C200.005 7.64773 200.151 8.00568 200.208 8.41477H199.202C199.126 8.11648 198.955 7.85227 198.691 7.62216C198.43 7.3892 198.077 7.27273 197.634 7.27273C197.242 7.27273 196.898 7.375 196.603 7.57955C196.31 7.78125 196.082 8.06676 195.917 8.43608C195.755 8.80256 195.674 9.23295 195.674 9.72727C195.674 10.233 195.754 10.6733 195.913 11.0483C196.075 11.4233 196.302 11.7145 196.594 11.9219C196.89 12.1293 197.237 12.233 197.634 12.233C197.896 12.233 198.133 12.1875 198.346 12.0966C198.559 12.0057 198.739 11.875 198.887 11.7045C199.035 11.5341 199.14 11.3295 199.202 11.0909H200.208C200.151 11.4773 200.011 11.8253 199.786 12.1349C199.565 12.4418 199.271 12.6861 198.904 12.8679C198.54 13.0469 198.117 13.1364 197.634 13.1364ZM204.423 13.1364C203.792 13.1364 203.248 12.9972 202.79 12.7188C202.336 12.4375 201.985 12.0455 201.738 11.5426C201.494 11.0369 201.371 10.4489 201.371 9.77841C201.371 9.10795 201.494 8.51705 201.738 8.00568C201.985 7.49148 202.329 7.09091 202.769 6.80398C203.212 6.5142 203.729 6.36932 204.32 6.36932C204.661 6.36932 204.998 6.42614 205.33 6.53977C205.663 6.65341 205.965 6.83807 206.238 7.09375C206.511 7.34659 206.728 7.68182 206.89 8.09943C207.052 8.51705 207.133 9.03125 207.133 9.64205V10.0682H202.087V9.19886H206.11C206.11 8.82955 206.036 8.5 205.888 8.21023C205.744 7.92045 205.536 7.69176 205.266 7.52415C204.999 7.35653 204.684 7.27273 204.32 7.27273C203.92 7.27273 203.573 7.37216 203.281 7.57102C202.991 7.76705 202.768 8.02273 202.612 8.33807C202.455 8.65341 202.377 8.99148 202.377 9.35227V9.93182C202.377 10.4261 202.462 10.8452 202.633 11.1889C202.806 11.5298 203.046 11.7898 203.353 11.9688C203.66 12.1449 204.016 12.233 204.423 12.233C204.687 12.233 204.925 12.196 205.138 12.1222C205.354 12.0455 205.54 11.9318 205.697 11.7812C205.853 11.6278 205.974 11.4375 206.059 11.2102L207.031 11.483C206.928 11.8125 206.756 12.1023 206.515 12.3523C206.273 12.5994 205.975 12.7926 205.62 12.9318C205.265 13.0682 204.866 13.1364 204.423 13.1364ZM209.668 9.0625V13H208.663V6.45455H209.634V7.47727H209.719C209.873 7.14489 210.106 6.87784 210.418 6.67614C210.731 6.47159 211.134 6.36932 211.629 6.36932C212.072 6.36932 212.46 6.46023 212.792 6.64205C213.124 6.82102 213.383 7.09375 213.567 7.46023C213.752 7.82386 213.844 8.28409 213.844 8.84091V13H212.839V8.90909C212.839 8.39489 212.705 7.99432 212.438 7.70739C212.171 7.41761 211.805 7.27273 211.339 7.27273C211.018 7.27273 210.731 7.34233 210.478 7.48153C210.228 7.62074 210.031 7.82386 209.886 8.09091C209.741 8.35795 209.668 8.68182 209.668 9.0625ZM218.529 6.45455V7.30682H215.137V6.45455H218.529ZM216.125 4.88636H217.131V11.125C217.131 11.4091 217.172 11.6222 217.255 11.7642C217.34 11.9034 217.448 11.9972 217.578 12.0455C217.712 12.0909 217.853 12.1136 218 12.1136C218.111 12.1136 218.202 12.108 218.273 12.0966C218.344 12.0824 218.401 12.071 218.444 12.0625L218.648 12.9659C218.58 12.9915 218.485 13.017 218.363 13.0426C218.24 13.071 218.086 13.0852 217.898 13.0852C217.614 13.0852 217.336 13.0241 217.063 12.902C216.793 12.7798 216.569 12.5938 216.39 12.3438C216.213 12.0938 216.125 11.7784 216.125 11.3977V4.88636ZM222.63 13.1364C222.039 13.1364 221.521 12.9957 221.075 12.7145C220.632 12.4332 220.285 12.0398 220.035 11.5341C219.788 11.0284 219.664 10.4375 219.664 9.76136C219.664 9.07955 219.788 8.48437 220.035 7.97585C220.285 7.46733 220.632 7.07244 221.075 6.79119C221.521 6.50994 222.039 6.36932 222.63 6.36932C223.221 6.36932 223.738 6.50994 224.181 6.79119C224.627 7.07244 224.974 7.46733 225.221 7.97585C225.471 8.48437 225.596 9.07955 225.596 9.76136C225.596 10.4375 225.471 11.0284 225.221 11.5341C224.974 12.0398 224.627 12.4332 224.181 12.7145C223.738 12.9957 223.221 13.1364 222.63 13.1364ZM222.63 12.233C223.079 12.233 223.449 12.1179 223.738 11.8878C224.028 11.6577 224.243 11.3551 224.382 10.9801C224.521 10.6051 224.591 10.1989 224.591 9.76136C224.591 9.32386 224.521 8.91619 224.382 8.53835C224.243 8.16051 224.028 7.85511 223.738 7.62216C223.449 7.3892 223.079 7.27273 222.63 7.27273C222.181 7.27273 221.812 7.3892 221.522 7.62216C221.233 7.85511 221.018 8.16051 220.879 8.53835C220.74 8.91619 220.67 9.32386 220.67 9.76136C220.67 10.1989 220.74 10.6051 220.879 10.9801C221.018 11.3551 221.233 11.6577 221.522 11.8878C221.812 12.1179 222.181 12.233 222.63 12.233ZM231.768 7.92045L230.864 8.17614C230.808 8.02557 230.724 7.87926 230.613 7.73722C230.505 7.59233 230.357 7.47301 230.17 7.37926C229.982 7.28551 229.742 7.23864 229.45 7.23864C229.049 7.23864 228.715 7.33097 228.448 7.51562C228.184 7.69744 228.052 7.92898 228.052 8.21023C228.052 8.46023 228.143 8.65767 228.325 8.80256C228.506 8.94744 228.79 9.06818 229.177 9.16477L230.148 9.40341C230.734 9.54545 231.17 9.76278 231.457 10.0554C231.744 10.3452 231.887 10.7187 231.887 11.1761C231.887 11.5511 231.779 11.8864 231.563 12.1818C231.35 12.4773 231.052 12.7102 230.668 12.8807C230.285 13.0511 229.839 13.1364 229.33 13.1364C228.663 13.1364 228.11 12.9915 227.673 12.7017C227.235 12.4119 226.958 11.9886 226.842 11.4318L227.796 11.1932C227.887 11.5455 228.059 11.8097 228.312 11.9858C228.567 12.1619 228.901 12.25 229.313 12.25C229.782 12.25 230.154 12.1506 230.43 11.9517C230.708 11.75 230.847 11.5085 230.847 11.2273C230.847 11 230.768 10.8097 230.609 10.6562C230.45 10.5 230.205 10.3835 229.876 10.3068L228.785 10.0511C228.185 9.90909 227.745 9.68892 227.464 9.39062C227.185 9.08949 227.046 8.71307 227.046 8.26136C227.046 7.89205 227.15 7.56534 227.357 7.28125C227.567 6.99716 227.853 6.77415 228.214 6.61222C228.577 6.45028 228.989 6.36932 229.45 6.36932C230.097 6.36932 230.606 6.51136 230.975 6.79545C231.347 7.07955 231.612 7.45455 231.768 7.92045Z" fill="#495057"/>
</g>
<defs>
<filter id="filter0_d_2_230" x="0" y="0" width="237" height="26" filterUnits="userSpaceOnUse" color-interpolation-filters="sRGB">
<feFlood flood-opacity="0" result="BackgroundImageFix"/>
<feColorMatrix in="SourceAlpha" type="matrix" values="0 0 0 0 0 0 0 0 0 0 0 0 0 0 0 0 0 0 127 0" result="hardAlpha"/>
<feOffset dy="4"/>
<feGaussianBlur stdDeviation="2"/>
<feComposite in2="hardAlpha" operator="out"/>
<feColorMatrix type="matrix" values="0 0 0 0 0 0 0 0 0 0 0 0 0 0 0 0 0 0 0.25 0"/>
<feBlend mode="normal" in2="BackgroundImageFix" result="effect1_dropShadow_2_230"/>
<feBlend mode="normal" in="SourceGraphic" in2="effect1_dropShadow_2_230" result="shape"/>
</filter>
</defs>
</svg>
